Pure Luck dvdrip (1991)

Have not uploaded something for a while, so here you go! 
It is not my release this time, so thanks go out to the team that released it!

General
Format                           : AVI
File size                        : 700 MiB
Duration                         : 1h 35mn
Overall bit rate                 : 1020 Kbps

Video
Duration                         : 1h 35mn
Bit rate                         : 876 Kbps
Width                            : 624 pixels
Height                           : 336 pixels
Display aspect ratio             : 1.857
Frame rate                       : 23.976 fps
Resolution                       : 8 bits
Colorimetry                      : 4:2:0
Scan type                        : Progressive
Bits/(Pixel*Frame)               : 0.174
Stream size                      : 601 MiB (86%)
Writing library                  : XviD 1.2.1 (UTC 2008-12-04)

Audio
ID                               : 1
Format                           : MPEG Audio
Format version                   : Version 1
Format profile                   : Layer 3
Mode                             : Joint stereo
Codec ID                         : 55
Codec ID/Hint                    : MP3
Duration                         : 1h 35mn
Bit rate mode                    : Variable
Bit rate                         : 131 Kbps
Nominal bit rate                 : 128 Kbps
Channel(s)                       : 2 channels
Sampling rate                    : 48.0 KHz
Stream size                      : 90.1 MiB (13%)
Alignment                        : Aligned on interleaves
Interleave, duration             : 24 ms (0.58 video frame)
Interleave, preload duration     : 190 ms
Writing library                  : LAME3.90.


I also added a srt subtitle file (english).

Hope you like it! I will seed as much as possible. 
If you want to thank me, seed for a few days. 

Enjoy!

Friendly greetings,
ZeNiTH_NL	